<svg width="120" height="120" viewBox="0 0 120 120" fill="none" xmlns="http://www.w3.org/2000/svg">
<ellipse cx="60" cy="60" rx="52" ry="50" fill="#EBECF0"/>
<path d="M25.3335 44.8971H49.9609L50.9431 42.6088H69.0572L70.0523 44.8971H94.6668V58.6271H76.0229L85.0893 79.4763L74.2624 86.087L66.1423 58.6271H54.4826L43.864 86.087L35.1193 79.4763L44.0679 58.6271H25.3335V44.8971Z" fill="#EBECF0"/>
<path d="M50.9431 42.6088H69.0572M50.9431 42.6088L54.4826 58.6271M50.9431 42.6088L35.1193 79.4763L43.864 86.087L54.4826 58.6271M69.0572 42.6088L66.1423 58.6271M69.0572 42.6088L85.0893 79.4763L74.2624 86.087L66.1423 58.6271M66.1423 58.6271H94.6668V44.8971H25.3335V58.6271H54.4826M66.1423 58.6271H54.4826" stroke="black" stroke-width="4"/>
</svg>
