<svg width="385" height="170" viewBox="0 0 385 170" fill="none" xmlns="http://www.w3.org/2000/svg">
<path d="M5 11.6316H137.622L142.991 3H242.009L247.449 11.6316H380C381.105 11.6316 382 12.527 382 13.6316V61.4211C382 62.5256 381.105 63.4211 380 63.4211H280.086L328.389 140.07C329.047 141.115 328.611 142.5 327.473 142.98L272.294 166.228C271.281 166.655 270.113 166.184 269.679 165.173L226.075 63.4211H162.339L105.243 165.307C104.715 166.25 103.532 166.602 102.573 166.102L58.4052 143.062C57.3731 142.524 57.017 141.221 57.6319 140.232L105.409 63.4211H5C3.89543 63.4211 3 62.5256 3 61.4211V13.6316C3 12.527 3.89543 11.6316 5 11.6316Z" fill="#313131"/>
<path d="M142.991 3H242.009M142.991 3L162.339 63.4211M142.991 3L57.6319 140.233C57.017 141.221 57.3731 142.524 58.4052 143.062L102.573 166.102C103.532 166.602 104.715 166.25 105.243 165.307L162.339 63.4211M242.009 3L226.075 63.4211M242.009 3L328.389 140.07C329.047 141.115 328.611 142.5 327.473 142.98L272.294 166.228C271.281 166.655 270.113 166.184 269.679 165.173L226.075 63.4211M226.075 63.4211H380C381.105 63.4211 382 62.5256 382 61.421V13.6316C382 12.527 381.105 11.6316 380 11.6316H5C3.89543 11.6316 3 12.527 3 13.6316V61.4211C3 62.5256 3.89543 63.4211 5 63.4211H162.339M226.075 63.4211H162.339" stroke="black" stroke-width="6"/>
</svg>
