<svg width="16" height="18" viewBox="0 0 16 18" fill="none" xmlns="http://www.w3.org/2000/svg">
<path d="M10.5 0.375488H5.5V2.04215H10.5V0.375488ZM7.16667 11.2088H8.83333V6.20882H7.16667V11.2088ZM13.8583 5.70049L15.0417 4.51715C14.6833 4.09215 14.2917 3.69215 13.8667 3.34215L12.6833 4.52549C11.3917 3.49215 9.76667 2.87549 8 2.87549C3.85833 2.87549 0.5 6.23382 0.5 10.3755C0.5 14.5172 3.85 17.8755 8 17.8755C12.15 17.8755 15.5 14.5172 15.5 10.3755C15.5 8.60882 14.8833 6.98382 13.8583 5.70049ZM8 16.2088C4.775 16.2088 2.16667 13.6005 2.16667 10.3755C2.16667 7.15049 4.775 4.54215 8 4.54215C11.225 4.54215 13.8333 7.15049 13.8333 10.3755C13.8333 13.6005 11.225 16.2088 8 16.2088Z" fill="#8C8C8C"/>
</svg>
