<svg width="55" height="55" viewBox="0 0 55 55" fill="none" xmlns="http://www.w3.org/2000/svg">
<ellipse cx="27" cy="27" rx="24" ry="23" fill="#EBECF0"/>
<path d="M11 20.0526H22.3665L22.8198 19H31.1802L31.6395 20.0526H43V26.3684H34.3951L38.5796 35.9591L33.5826 39L29.8348 26.3684H24.4535L19.5526 39L15.5165 35.9591L19.6467 26.3684H11V20.0526Z" fill="#EBECF0"/>
<path d="M22.8198 19H31.1802M22.8198 19L24.4535 26.3684M22.8198 19L15.5165 35.9591L19.5526 39L24.4535 26.3684M31.1802 19L29.8348 26.3684M31.1802 19L38.5796 35.9591L33.5826 39L29.8348 26.3684M29.8348 26.3684H43V20.0526H11V26.3684H24.4535M29.8348 26.3684H24.4535" stroke="black" stroke-width="2"/>
</svg>
