<svg width="114" height="73" viewBox="0 0 114 73" fill="none" xmlns="http://www.w3.org/2000/svg">
<ellipse cx="55.3507" cy="17.2057" rx="17.3263" ry="17.2057" fill="#4EAFE5"/>
<ellipse cx="89.8378" cy="26.2234" rx="12.3759" ry="12.1699" fill="#4EAFE5"/>
<path d="M91.6338 64.997H68.5589C66.3613 64.997 70.4817 40.6572 91.6338 40.6572C112.786 40.6573 91.6338 64.997 91.6338 64.997Z" fill="#4EAFE5"/>
<path d="M91.6628 64.997H113.502C115.581 64.997 111.682 40.6572 91.6628 40.6572C71.6439 40.6573 91.6628 64.997 91.6628 64.997Z" fill="#4EAFE5"/>
<ellipse cx="21.8056" cy="25.3449" rx="12.3759" ry="12.1699" fill="#4EAFE5"/>
<path d="M23.6016 64.1188H0.526639C-1.67095 64.1188 2.44951 39.779 23.6016 39.7791C44.7536 39.7791 23.6016 64.1188 23.6016 64.1188Z" fill="#4EAFE5"/>
<path d="M23.6306 64.1188H45.4693C47.5492 64.1188 43.6495 39.779 23.6306 39.7791C3.61166 39.7791 23.6306 64.1188 23.6306 64.1188Z" fill="#4EAFE5"/>
<path d="M38.6134 47.4305C38.6134 47.4305 26.7983 71.3018 23.7217 71.3018C20.6451 71.3018 26.4137 36.8903 56.0266 36.8904C85.6394 36.8905 38.6134 47.4305 38.6134 47.4305Z" fill="white"/>
<path d="M76.8475 46.5526C76.8475 46.5526 88.6634 70.4253 91.7402 70.4253C94.817 70.4253 89.048 36.0119 59.4331 36.012C29.8182 36.0121 76.8475 46.5526 76.8475 46.5526Z" fill="white"/>
<path d="M58.7834 72.1799H26.4785C23.4019 72.1799 29.1705 37.7685 58.7834 37.7686C88.3963 37.7686 58.7834 72.1799 58.7834 72.1799Z" fill="#4EAFE5"/>
<path d="M58.8236 72.1799H89.3979C92.3097 72.1799 86.8501 37.7685 58.8236 37.7686C30.7971 37.7686 58.8236 72.1799 58.8236 72.1799Z" fill="#4EAFE5"/>
</svg>
