<svg width="38" height="28" viewBox="0 0 38 28" fill="none" xmlns="http://www.w3.org/2000/svg">
<path d="M30.6665 7.33317L23.9998 13.9998H28.9998C28.9998 19.5165 24.5165 23.9998 18.9998 23.9998C17.3165 23.9998 15.7165 23.5832 14.3332 22.8332L11.8998 25.2665C13.9498 26.5665 16.3832 27.3332 18.9998 27.3332C26.3665 27.3332 32.3332 21.3665 32.3332 13.9998H37.3332L30.6665 7.33317ZM8.99984 13.9998C8.99984 8.48317 13.4832 3.99984 18.9998 3.99984C20.6832 3.99984 22.2832 4.4165 23.6665 5.1665L26.0998 2.73317C24.0498 1.43317 21.6165 0.666504 18.9998 0.666504C11.6332 0.666504 5.6665 6.63317 5.6665 13.9998H0.666504L7.33317 20.6665L13.9998 13.9998H8.99984Z" fill="#A8A8A8"/>
</svg>
