<svg width="20" height="21" viewBox="0 0 20 21" fill="none" xmlns="http://www.w3.org/2000/svg">
<path d="M12.59 6.12666L10 8.75767L7.41 6.12666L6 7.55899L8.59 10.19L6 12.821L7.41 14.2533L10 11.6223L12.59 14.2533L14 12.821L11.41 10.19L14 7.55899L12.59 6.12666ZM10 0.0316772C4.47 0.0316772 0 4.57244 0 10.19C0 15.8075 4.47 20.3483 10 20.3483C15.53 20.3483 20 15.8075 20 10.19C20 4.57244 15.53 0.0316772 10 0.0316772ZM10 18.3166C5.59 18.3166 2 14.6698 2 10.19C2 5.71017 5.59 2.06334 10 2.06334C14.41 2.06334 18 5.71017 18 10.19C18 14.6698 14.41 18.3166 10 18.3166Z" fill="#CBCBCB"/>
</svg>
